<svg width="71" height="51" viewBox="0 0 71 51" fill="none" xmlns="http://www.w3.org/2000/svg">
<path d="M70.337 24.5136L59.6408 12.8147C59.2191 12.3526 58.6216 12.0895 57.9958 12.0895H45.3498V2.61916C45.3498 1.38825 44.3522 0.390625 43.1213 0.390625H2.50837C1.27746 0.390625 0.279846 1.38857 0.279846 2.61916C0.279846 3.84975 1.27746 4.84769 2.50837 4.84769H40.8924V40.3352H21.6721C20.7095 37.1014 17.7115 34.7362 14.1697 34.7362C10.628 34.7362 7.62937 37.1014 6.66766 40.3352H2.50837C1.27746 40.3352 0.279846 41.3328 0.279846 42.5634C0.279846 43.7946 1.27746 44.792 2.50837 44.792H6.66766C7.62937 48.0251 10.628 50.3906 14.1697 50.3906C17.7115 50.3906 20.7095 48.0251 21.6721 44.792H43.121H48.4037C49.3664 48.0251 52.365 50.3906 55.9062 50.3906C59.4486 50.3906 62.4465 48.0251 63.4089 44.792H68.692C69.9229 44.792 70.9205 43.7943 70.9205 42.5634V26.0172C70.9211 25.4613 70.7123 24.9245 70.337 24.5136ZM14.1697 45.9342C12.3115 45.9342 10.7996 44.4223 10.7996 42.5637C10.7996 40.7054 12.3115 39.1933 14.1697 39.1933C16.028 39.1933 17.5399 40.7058 17.5399 42.5637C17.5402 44.4223 16.028 45.9342 14.1697 45.9342ZM55.9065 45.9342C54.0482 45.9342 52.5363 44.4223 52.5363 42.5637C52.5363 40.7054 54.0485 39.1933 55.9065 39.1933C57.7654 39.1933 59.2772 40.7058 59.2772 42.5637C59.2776 44.4223 57.7654 45.9342 55.9065 45.9342ZM63.4095 40.3355C62.4471 37.1017 59.4492 34.7365 55.9068 34.7365C52.3653 34.7365 49.3671 37.1017 48.4044 40.3355H45.3501V16.5469H57.0144L63.6355 23.789H51.0121C49.7818 23.789 48.7842 24.7869 48.7842 26.0175C48.7842 27.2487 49.7818 28.2461 51.0121 28.2461H66.4641V40.3352H63.4095V40.3355Z" fill="#111111"/>
</svg>
