<svg width="405" height="107" viewBox="0 0 405 107" fill="none" xmlns="http://www.w3.org/2000/svg">
<path d="M0.316 41H16.852C28.76 41 36.924 33.824 36.924 22.8C36.924 11.776 28.76 4.6 16.852 4.6H0.316V41ZM8.74 34.084V11.516H16.436C23.664 11.516 28.396 15.832 28.396 22.8C28.396 29.768 23.664 34.084 16.436 34.084H8.74ZM46.7609 9.124C49.7769 9.124 51.8049 7.148 51.8049 4.444C51.8049 1.948 49.7769 0.0759969 46.7609 0.0759969C43.7449 0.0759969 41.7169 2.052 41.7169 4.6C41.7169 7.148 43.7449 9.124 46.7609 9.124ZM42.7049 41H50.8169V13.024H42.7049V41ZM67.7576 41.416C76.1296 41.416 80.9656 37.724 80.9656 32.524C80.9656 21.5 64.0656 26.128 64.0656 21.344C64.0656 19.888 65.6256 18.744 69.2656 18.744C71.8136 18.744 74.5696 19.264 77.3256 20.824L80.0296 15.052C77.3776 13.492 73.1136 12.608 69.2656 12.608C61.1016 12.608 56.3176 16.352 56.3176 21.656C56.3176 32.836 73.2176 28.156 73.2176 32.732C73.2176 34.292 71.8136 35.28 68.0696 35.28C64.6376 35.28 60.8416 34.188 58.3456 32.576L55.6416 38.4C58.2416 40.116 63.0256 41.416 67.7576 41.416ZM99.4906 41.416C105.367 41.416 109.995 38.816 112.023 34.344L105.731 30.912C104.223 33.616 101.987 34.76 99.4386 34.76C95.3306 34.76 92.1066 31.9 92.1066 27.012C92.1066 22.124 95.3306 19.264 99.4386 19.264C101.987 19.264 104.223 20.46 105.731 23.112L112.023 19.732C109.995 15.156 105.367 12.608 99.4906 12.608C90.3906 12.608 83.8906 18.588 83.8906 27.012C83.8906 35.436 90.3906 41.416 99.4906 41.416ZM129.65 41.416C138.542 41.416 144.99 35.436 144.99 27.012C144.99 18.588 138.542 12.608 129.65 12.608C120.758 12.608 114.258 18.588 114.258 27.012C114.258 35.436 120.758 41.416 129.65 41.416ZM129.65 34.76C125.594 34.76 122.474 31.848 122.474 27.012C122.474 22.176 125.594 19.264 129.65 19.264C133.706 19.264 136.774 22.176 136.774 27.012C136.774 31.848 133.706 34.76 129.65 34.76ZM169.618 13.024L161.61 32.056L153.862 13.024H145.49L157.242 41H165.614L177.418 13.024H169.618ZM207.371 27.116C207.371 18.12 201.027 12.608 192.811 12.608C184.283 12.608 177.887 18.64 177.887 27.012C177.887 35.332 184.179 41.416 193.851 41.416C198.895 41.416 202.795 39.856 205.395 36.892L201.079 32.212C199.155 34.032 197.023 34.916 194.059 34.916C189.795 34.916 186.831 32.784 186.051 29.3H207.215C207.267 28.624 207.371 27.74 207.371 27.116ZM192.863 18.744C196.503 18.744 199.155 21.032 199.727 24.568H185.947C186.519 20.98 189.171 18.744 192.863 18.744ZM220.519 16.716V13.024H212.771V41H220.883V27.792C220.883 22.436 223.847 19.992 228.319 19.992C228.943 19.992 229.463 20.044 230.139 20.096V12.608C225.823 12.608 222.495 14.012 220.519 16.716ZM268.092 41.624C279.532 41.624 288.008 33.668 288.008 22.8C288.008 11.932 279.532 3.976 268.092 3.976C256.6 3.976 248.176 11.984 248.176 22.8C248.176 33.616 256.6 41.624 268.092 41.624ZM268.092 34.448C261.592 34.448 256.704 29.716 256.704 22.8C256.704 15.884 261.592 11.152 268.092 11.152C274.592 11.152 279.48 15.884 279.48 22.8C279.48 29.716 274.592 34.448 268.092 34.448ZM313.839 13.024V26.856C313.839 32.004 311.135 34.396 307.391 34.396C303.803 34.396 301.723 32.316 301.723 27.636V13.024H293.611V28.832C293.611 37.464 298.551 41.416 305.571 41.416C309.003 41.416 312.123 40.116 314.255 37.672V41H321.951V13.024H313.839ZM337.215 16.716V13.024H329.467V41H337.579V27.792C337.579 22.436 340.543 19.992 345.015 19.992C345.639 19.992 346.159 20.044 346.835 20.096V12.608C342.519 12.608 339.191 14.012 337.215 16.716ZM25.38 69.6V91.7L7.284 69.6H0.316V106H8.636V83.9L26.784 106H33.7V69.6H25.38ZM69.1441 92.116C69.1441 83.12 62.8001 77.608 54.5841 77.608C46.0561 77.608 39.6601 83.64 39.6601 92.012C39.6601 100.332 45.9521 106.416 55.6241 106.416C60.6681 106.416 64.5681 104.856 67.1681 101.892L62.8521 97.212C60.9281 99.032 58.7961 99.916 55.8321 99.916C51.5681 99.916 48.6041 97.784 47.8241 94.3H68.9881C69.0401 93.624 69.1441 92.74 69.1441 92.116ZM54.6361 83.744C58.2761 83.744 60.9281 86.032 61.5001 89.568H47.7201C48.2921 85.98 50.9441 83.744 54.6361 83.744ZM111.789 78.024L104.977 96.952L98.321 78.024H91.457L84.593 96.952L77.989 78.024H70.345L80.433 106H88.233L94.733 88.632L101.025 106H108.825L118.965 78.024H111.789ZM155.455 106.624C161.799 106.624 167.051 104.336 170.483 100.124L165.075 95.132C162.631 97.992 159.563 99.448 155.923 99.448C149.111 99.448 144.275 94.664 144.275 87.8C144.275 80.936 149.111 76.152 155.923 76.152C159.563 76.152 162.631 77.608 165.075 80.416L170.483 75.424C167.051 71.264 161.799 68.976 155.507 68.976C144.171 68.976 135.747 76.828 135.747 87.8C135.747 98.772 144.171 106.624 155.455 106.624ZM187.947 106.416C196.839 106.416 203.287 100.436 203.287 92.012C203.287 83.588 196.839 77.608 187.947 77.608C179.055 77.608 172.555 83.588 172.555 92.012C172.555 100.436 179.055 106.416 187.947 106.416ZM187.947 99.76C183.891 99.76 180.771 96.848 180.771 92.012C180.771 87.176 183.891 84.264 187.947 84.264C192.003 84.264 195.071 87.176 195.071 92.012C195.071 96.848 192.003 99.76 187.947 99.76ZM208.709 106H216.821V67.416H208.709V106ZM224.349 106H232.461V67.416H224.349V106ZM267.394 92.116C267.394 83.12 261.05 77.608 252.834 77.608C244.306 77.608 237.91 83.64 237.91 92.012C237.91 100.332 244.202 106.416 253.874 106.416C258.918 106.416 262.818 104.856 265.418 101.892L261.102 97.212C259.178 99.032 257.046 99.916 254.082 99.916C249.818 99.916 246.854 97.784 246.074 94.3H267.238C267.29 93.624 267.394 92.74 267.394 92.116ZM252.886 83.744C256.526 83.744 259.178 86.032 259.75 89.568H245.97C246.542 85.98 249.194 83.744 252.886 83.744ZM286.315 106.416C292.191 106.416 296.819 103.816 298.847 99.344L292.555 95.912C291.047 98.616 288.811 99.76 286.263 99.76C282.155 99.76 278.931 96.9 278.931 92.012C278.931 87.124 282.155 84.264 286.263 84.264C288.811 84.264 291.047 85.46 292.555 88.112L298.847 84.732C296.819 80.156 292.191 77.608 286.315 77.608C277.215 77.608 270.715 83.588 270.715 92.012C270.715 100.436 277.215 106.416 286.315 106.416ZM319.784 98.928C318.9 99.604 317.704 99.968 316.508 99.968C314.324 99.968 313.024 98.668 313.024 96.276V84.888H319.992V78.648H313.024V71.836H304.912V78.648H300.596V84.888H304.912V96.38C304.912 103.036 308.76 106.416 315.364 106.416C317.86 106.416 320.304 105.844 321.968 104.648L319.784 98.928ZM330.577 74.124C333.593 74.124 335.621 72.148 335.621 69.444C335.621 66.948 333.593 65.076 330.577 65.076C327.561 65.076 325.533 67.052 325.533 69.6C325.533 72.148 327.561 74.124 330.577 74.124ZM326.521 106H334.633V78.024H326.521V106ZM355.474 106.416C364.366 106.416 370.814 100.436 370.814 92.012C370.814 83.588 364.366 77.608 355.474 77.608C346.582 77.608 340.082 83.588 340.082 92.012C340.082 100.436 346.582 106.416 355.474 106.416ZM355.474 99.76C351.418 99.76 348.298 96.848 348.298 92.012C348.298 87.176 351.418 84.264 355.474 84.264C359.53 84.264 362.598 87.176 362.598 92.012C362.598 96.848 359.53 99.76 355.474 99.76ZM393.24 77.608C389.444 77.608 386.168 78.908 383.984 81.3V78.024H376.236V106H384.348V92.168C384.348 87.02 387.156 84.628 391.056 84.628C394.644 84.628 396.724 86.708 396.724 91.232V106H404.836V89.984C404.836 81.456 399.844 77.608 393.24 77.608Z" fill="#054C73"/>
</svg>
